<?xml version="1.0" encoding="UTF-8" standalone="no"?>
<svg
   xmlns:dc="http://purl.org/dc/elements/1.1/"
   xmlns:cc="http://creativecommons.org/ns#"
   xmlns:rdf="http://www.w3.org/1999/02/22-rdf-syntax-ns#"
   xmlns:svg="http://www.w3.org/2000/svg"
   xmlns="http://www.w3.org/2000/svg"
   xmlns:xlink="http://www.w3.org/1999/xlink"
   xmlns:sodipodi="http://sodipodi.sourceforge.net/DTD/sodipodi-0.dtd"
   xmlns:inkscape="http://www.inkscape.org/namespaces/inkscape"
   version="1.1"
   width="1600"
   height="1000"
   id="Layer_1"
   xml:space="preserve"
   sodipodi:docname="utah2.svg"
   inkscape:version="1.0.1 (3bc2e813f5, 2020-09-07)"
   inkscape:export-filename="D:\Docs\Flag_of_Utah2.png"
   inkscape:export-xdpi="420"
   inkscape:export-ydpi="420"><sodipodi:namedview
   pagecolor="#ffffff"
   bordercolor="#666666"
   borderopacity="1"
   objecttolerance="10"
   gridtolerance="10"
   guidetolerance="10"
   inkscape:pageopacity="0"
   inkscape:pageshadow="2"
   inkscape:window-width="1920"
   inkscape:window-height="1227"
   id="namedview2443"
   showgrid="false"
   inkscape:snap-bbox="true"
   inkscape:bbox-paths="true"
   inkscape:bbox-nodes="true"
   inkscape:snap-bbox-edge-midpoints="true"
   inkscape:snap-bbox-midpoints="true"
   inkscape:snap-text-baseline="true"
   inkscape:object-paths="true"
   inkscape:snap-intersection-paths="true"
   inkscape:snap-smooth-nodes="true"
   inkscape:snap-midpoints="true"
   inkscape:snap-nodes="true"
   inkscape:zoom="0.345"
   inkscape:cx="1294.4383"
   inkscape:cy="393.64975"
   inkscape:window-x="-8"
   inkscape:window-y="-8"
   inkscape:window-maximized="1"
   inkscape:current-layer="Layer_1"
   inkscape:snap-page="true" /><defs
   id="defs1625">
	
	
	
	
	
	
	
	
	
	
	
	
	
	
	
	
	
	
	
	
	
	
	
	
	
	
	
	
	
	
	
	
	
	
	
	
	
	
	
	
	
	
	
	
	
	
	
	
	
	
	
	

		
		
	
		
		
		
		
	
		
		
	
		
		
		
		
	
		
		
		
		
		
	
		
		
		
		
	
		
		
	
		
		
		
		
		
		
		
		
		
		
		
		
		
		
		
		
		
		
		
		
		
		
		
	
		
		
		
		
	
		
		
	
		
		
		
		
		
	
		
		
	
		
		
	
		
		
		
		
		
		
		
		
		
		
		
		
		
		
		
		
		
		
		
		
		
		
		
		
		
		
		
		
		
		
		
		
		
		
		
		
		
		
		
		
		
		
		
		
		
		
		
		
		
		
		
		
		
		
		
		
		
		
		
		
		
		
		
		
		
		
		
		
		
		
		
		
		
		
		
		
		
		
		
		
		
		
		
		
		
		
		
		
		
		
		
		
		
		
	
		
		
		
		
		
		
		
		
		
		
		
		
		
		
		
		
		
		
		
		
		
		
		
		
		
		
		
		
		
		
		
		
		
		
		
		
		
		
		
		
		
		
		
		
		
		
		
		
		
		
		
		
		
		
		
		
		
		
		
		
		
		
		
		
		
		
		
		
		
		
		
		
		
		
		
		
		
		
		
		
		
		
		
		
		
		
		
		
		
		
		
		
		
		
		
		
		
		
		
		
		
		
		
		
		
	
			
			
			
			
			
			
			
		
				
				
				
				
				
				
				
				
				
				
				
				
				
				
				
				
				
			
					
					
				</defs>
<metadata
   id="metadata9405"><rdf:RDF><cc:Work
       rdf:about=""><dc:title></dc:title><dc:format>image/svg+xml</dc:format><dc:type
         rdf:resource="http://purl.org/dc/dcmitype/StillImage" /></cc:Work></rdf:RDF></metadata><g
   id="g4665"
   transform="translate(-2202.8984,2372.488)"><rect
     width="1600"
     height="1000"
     x="2202.8984"
     y="-2372.488"
     id="rect5-3"
     style="fill:#ffd42a;fill-opacity:1;fill-rule:evenodd;stroke-width:1"
     inkscape:export-xdpi="420"
     inkscape:export-ydpi="420" /><path
     sodipodi:type="star"
     style="opacity:0.99;fill:none;fill-opacity:1;stroke:#aa4400;stroke-width:50;stroke-linejoin:round;stroke-miterlimit:4;stroke-dasharray:none;stroke-opacity:1;paint-order:stroke markers fill"
     id="path4129-4"
     sodipodi:sides="6"
     sodipodi:cx="739.13043"
     sodipodi:cy="527.53625"
     sodipodi:r1="204.99947"
     sodipodi:r2="177.53474"
     sodipodi:arg1="0.78539816"
     sodipodi:arg2="1.3089969"
     inkscape:flatsided="true"
     inkscape:rounded="0"
     inkscape:randomized="0"
     d="M 884.08695,672.49277 686.07267,725.55053 541.11615,580.59402 594.17392,382.57974 792.1882,329.52198 937.14471,474.47849 Z"
     transform="matrix(0.38200244,0.10235726,-0.10235726,0.38200244,2308.724,-2712.7168)" /><path
     sodipodi:type="star"
     style="opacity:0.99;fill:none;fill-opacity:1;stroke:#aa4400;stroke-width:50;stroke-linejoin:round;stroke-miterlimit:4;stroke-dasharray:none;stroke-opacity:1;paint-order:stroke markers fill"
     id="path4129-4-4"
     sodipodi:sides="6"
     sodipodi:cx="739.13043"
     sodipodi:cy="527.53625"
     sodipodi:r1="204.99947"
     sodipodi:r2="177.53474"
     sodipodi:arg1="0.78539816"
     sodipodi:arg2="1.3089969"
     inkscape:flatsided="true"
     inkscape:rounded="0"
     inkscape:randomized="0"
     d="M 884.08695,672.49277 686.07267,725.55053 541.11615,580.59402 594.17392,382.57974 792.1882,329.52198 937.14471,474.47849 Z"
     transform="matrix(0.38200244,0.10235726,-0.10235726,0.38200244,2308.724,-2572.2945)" /><path
     sodipodi:type="star"
     style="opacity:0.99;fill:none;fill-opacity:1;stroke:#aa4400;stroke-width:50;stroke-linejoin:round;stroke-miterlimit:4;stroke-dasharray:none;stroke-opacity:1;paint-order:stroke markers fill"
     id="path4129-4-8-8"
     sodipodi:sides="6"
     sodipodi:cx="739.13043"
     sodipodi:cy="527.53625"
     sodipodi:r1="204.99947"
     sodipodi:r2="177.53474"
     sodipodi:arg1="0.78539816"
     sodipodi:arg2="1.3089969"
     inkscape:flatsided="true"
     inkscape:rounded="0"
     inkscape:randomized="0"
     d="M 884.08695,672.49277 686.07267,725.55053 541.11615,580.59402 594.17392,382.57974 792.1882,329.52198 937.14471,474.47849 Z"
     transform="matrix(0.38200244,0.10235726,-0.10235726,0.38200244,2187.1148,-2642.5056)" /><path
     sodipodi:type="star"
     style="opacity:0.99;fill:none;fill-opacity:1;stroke:#aa4400;stroke-width:50;stroke-linejoin:round;stroke-miterlimit:4;stroke-dasharray:none;stroke-opacity:1;paint-order:stroke markers fill"
     id="path4129-4-0"
     sodipodi:sides="6"
     sodipodi:cx="739.13043"
     sodipodi:cy="527.53625"
     sodipodi:r1="204.99947"
     sodipodi:r2="177.53474"
     sodipodi:arg1="0.78539816"
     sodipodi:arg2="1.3089969"
     inkscape:flatsided="true"
     inkscape:rounded="0"
     inkscape:randomized="0"
     d="M 884.08695,672.49277 686.07267,725.55053 541.11615,580.59402 594.17392,382.57974 792.1882,329.52198 937.14471,474.47849 Z"
     transform="matrix(0.38200244,0.10235726,-0.10235726,0.38200244,2308.724,-2431.8724)" /><path
     sodipodi:type="star"
     style="opacity:0.99;fill:none;fill-opacity:1;stroke:#aa4400;stroke-width:50;stroke-linejoin:round;stroke-miterlimit:4;stroke-dasharray:none;stroke-opacity:1;paint-order:stroke markers fill"
     id="path4129-4-8-0"
     sodipodi:sides="6"
     sodipodi:cx="739.13043"
     sodipodi:cy="527.53625"
     sodipodi:r1="204.99947"
     sodipodi:r2="177.53474"
     sodipodi:arg1="0.78539816"
     sodipodi:arg2="1.3089969"
     inkscape:flatsided="true"
     inkscape:rounded="0"
     inkscape:randomized="0"
     d="M 884.08695,672.49277 686.07267,725.55053 541.11615,580.59402 594.17392,382.57974 792.1882,329.52198 937.14471,474.47849 Z"
     transform="matrix(0.38200244,0.10235726,-0.10235726,0.38200244,2187.1148,-2502.0836)" /><path
     sodipodi:type="star"
     style="opacity:0.99;fill:none;fill-opacity:1;stroke:#aa4400;stroke-width:50;stroke-linejoin:round;stroke-miterlimit:4;stroke-dasharray:none;stroke-opacity:1;paint-order:stroke markers fill"
     id="path4129-4-4-3"
     sodipodi:sides="6"
     sodipodi:cx="739.13043"
     sodipodi:cy="527.53625"
     sodipodi:r1="204.99947"
     sodipodi:r2="177.53474"
     sodipodi:arg1="0.78539816"
     sodipodi:arg2="1.3089969"
     inkscape:flatsided="true"
     inkscape:rounded="0"
     inkscape:randomized="0"
     d="M 884.08695,672.49277 686.07267,725.55053 541.11615,580.59402 594.17392,382.57974 792.1882,329.52198 937.14471,474.47849 Z"
     transform="matrix(0.38200244,0.10235726,-0.10235726,0.38200244,2308.724,-2291.4504)" /><path
     sodipodi:type="star"
     style="opacity:0.99;fill:none;fill-opacity:1;stroke:#aa4400;stroke-width:50;stroke-linejoin:round;stroke-miterlimit:4;stroke-dasharray:none;stroke-opacity:1;paint-order:stroke markers fill"
     id="path4129-4-8-8-7"
     sodipodi:sides="6"
     sodipodi:cx="739.13043"
     sodipodi:cy="527.53625"
     sodipodi:r1="204.99947"
     sodipodi:r2="177.53474"
     sodipodi:arg1="0.78539816"
     sodipodi:arg2="1.3089969"
     inkscape:flatsided="true"
     inkscape:rounded="0"
     inkscape:randomized="0"
     d="M 884.08695,672.49277 686.07267,725.55053 541.11615,580.59402 594.17392,382.57974 792.1882,329.52198 937.14471,474.47849 Z"
     transform="matrix(0.38200244,0.10235726,-0.10235726,0.38200244,2187.1148,-2361.6613)" /><path
     sodipodi:type="star"
     style="opacity:0.99;fill:none;fill-opacity:1;stroke:#aa4400;stroke-width:50;stroke-linejoin:round;stroke-miterlimit:4;stroke-dasharray:none;stroke-opacity:1;paint-order:stroke markers fill"
     id="path4129-4-00"
     sodipodi:sides="6"
     sodipodi:cx="739.13043"
     sodipodi:cy="527.53625"
     sodipodi:r1="204.99947"
     sodipodi:r2="177.53474"
     sodipodi:arg1="0.78539816"
     sodipodi:arg2="1.3089969"
     inkscape:flatsided="true"
     inkscape:rounded="0"
     inkscape:randomized="0"
     d="M 884.08695,672.49277 686.07267,725.55053 541.11615,580.59402 594.17392,382.57974 792.1882,329.52198 937.14471,474.47849 Z"
     transform="matrix(0.38200244,0.10235726,-0.10235726,0.38200244,2308.724,-2151.0281)" /><path
     sodipodi:type="star"
     style="opacity:0.99;fill:none;fill-opacity:1;stroke:#aa4400;stroke-width:50;stroke-linejoin:round;stroke-miterlimit:4;stroke-dasharray:none;stroke-opacity:1;paint-order:stroke markers fill"
     id="path4129-4-8-6"
     sodipodi:sides="6"
     sodipodi:cx="739.13043"
     sodipodi:cy="527.53625"
     sodipodi:r1="204.99947"
     sodipodi:r2="177.53474"
     sodipodi:arg1="0.78539816"
     sodipodi:arg2="1.3089969"
     inkscape:flatsided="true"
     inkscape:rounded="0"
     inkscape:randomized="0"
     d="M 884.08695,672.49277 686.07267,725.55053 541.11615,580.59402 594.17392,382.57974 792.1882,329.52198 937.14471,474.47849 Z"
     transform="matrix(0.38200244,0.10235726,-0.10235726,0.38200244,2187.1148,-2221.2393)" /><path
     sodipodi:type="star"
     style="opacity:0.99;fill:none;fill-opacity:1;stroke:#aa4400;stroke-width:50;stroke-linejoin:round;stroke-miterlimit:4;stroke-dasharray:none;stroke-opacity:1;paint-order:stroke markers fill"
     id="path4129-4-4-4"
     sodipodi:sides="6"
     sodipodi:cx="739.13043"
     sodipodi:cy="527.53625"
     sodipodi:r1="204.99947"
     sodipodi:r2="177.53474"
     sodipodi:arg1="0.78539816"
     sodipodi:arg2="1.3089969"
     inkscape:flatsided="true"
     inkscape:rounded="0"
     inkscape:randomized="0"
     d="M 884.08695,672.49277 686.07267,725.55053 541.11615,580.59402 594.17392,382.57974 792.1882,329.52198 937.14471,474.47849 Z"
     transform="matrix(0.38200244,0.10235726,-0.10235726,0.38200244,2308.724,-2010.606)" /><path
     sodipodi:type="star"
     style="opacity:0.99;fill:none;fill-opacity:1;stroke:#aa4400;stroke-width:50;stroke-linejoin:round;stroke-miterlimit:4;stroke-dasharray:none;stroke-opacity:1;paint-order:stroke markers fill"
     id="path4129-4-8-8-9"
     sodipodi:sides="6"
     sodipodi:cx="739.13043"
     sodipodi:cy="527.53625"
     sodipodi:r1="204.99947"
     sodipodi:r2="177.53474"
     sodipodi:arg1="0.78539816"
     sodipodi:arg2="1.3089969"
     inkscape:flatsided="true"
     inkscape:rounded="0"
     inkscape:randomized="0"
     d="M 884.08695,672.49277 686.07267,725.55053 541.11615,580.59402 594.17392,382.57974 792.1882,329.52198 937.14471,474.47849 Z"
     transform="matrix(0.38200244,0.10235726,-0.10235726,0.38200244,2187.1148,-2080.817)" /><path
     sodipodi:type="star"
     style="opacity:0.99;fill:none;fill-opacity:1;stroke:#aa4400;stroke-width:50;stroke-linejoin:round;stroke-miterlimit:4;stroke-dasharray:none;stroke-opacity:1;paint-order:stroke markers fill"
     id="path4129-4-0-7"
     sodipodi:sides="6"
     sodipodi:cx="739.13043"
     sodipodi:cy="527.53625"
     sodipodi:r1="204.99947"
     sodipodi:r2="177.53474"
     sodipodi:arg1="0.78539816"
     sodipodi:arg2="1.3089969"
     inkscape:flatsided="true"
     inkscape:rounded="0"
     inkscape:randomized="0"
     d="M 884.08695,672.49277 686.07267,725.55053 541.11615,580.59402 594.17392,382.57974 792.1882,329.52198 937.14471,474.47849 Z"
     transform="matrix(0.38200244,0.10235726,-0.10235726,0.38200244,2308.724,-1870.1839)" /><path
     sodipodi:type="star"
     style="opacity:0.99;fill:none;fill-opacity:1;stroke:#aa4400;stroke-width:50;stroke-linejoin:round;stroke-miterlimit:4;stroke-dasharray:none;stroke-opacity:1;paint-order:stroke markers fill"
     id="path4129-4-8-0-0"
     sodipodi:sides="6"
     sodipodi:cx="739.13043"
     sodipodi:cy="527.53625"
     sodipodi:r1="204.99947"
     sodipodi:r2="177.53474"
     sodipodi:arg1="0.78539816"
     sodipodi:arg2="1.3089969"
     inkscape:flatsided="true"
     inkscape:rounded="0"
     inkscape:randomized="0"
     d="M 884.08695,672.49277 686.07267,725.55053 541.11615,580.59402 594.17392,382.57974 792.1882,329.52198 937.14471,474.47849 Z"
     transform="matrix(0.38200244,0.10235726,-0.10235726,0.38200244,2187.1148,-1940.3949)" /><path
     sodipodi:type="star"
     style="opacity:0.99;fill:none;fill-opacity:1;stroke:#aa4400;stroke-width:50;stroke-linejoin:round;stroke-miterlimit:4;stroke-dasharray:none;stroke-opacity:1;paint-order:stroke markers fill"
     id="path4129-4-4-3-0"
     sodipodi:sides="6"
     sodipodi:cx="739.13043"
     sodipodi:cy="527.53625"
     sodipodi:r1="204.99947"
     sodipodi:r2="177.53474"
     sodipodi:arg1="0.78539816"
     sodipodi:arg2="1.3089969"
     inkscape:flatsided="true"
     inkscape:rounded="0"
     inkscape:randomized="0"
     d="M 884.08695,672.49277 686.07267,725.55053 541.11615,580.59402 594.17392,382.57974 792.1882,329.52198 937.14471,474.47849 Z"
     transform="matrix(0.38200244,0.10235726,-0.10235726,0.38200244,2308.724,-1729.7617)" /><path
     sodipodi:type="star"
     style="opacity:0.99;fill:none;fill-opacity:1;stroke:#aa4400;stroke-width:50;stroke-linejoin:round;stroke-miterlimit:4;stroke-dasharray:none;stroke-opacity:1;paint-order:stroke markers fill"
     id="path4129-4-8-8-7-2"
     sodipodi:sides="6"
     sodipodi:cx="739.13043"
     sodipodi:cy="527.53625"
     sodipodi:r1="204.99947"
     sodipodi:r2="177.53474"
     sodipodi:arg1="0.78539816"
     sodipodi:arg2="1.3089969"
     inkscape:flatsided="true"
     inkscape:rounded="0"
     inkscape:randomized="0"
     d="M 884.08695,672.49277 686.07267,725.55053 541.11615,580.59402 594.17392,382.57974 792.1882,329.52198 937.14471,474.47849 Z"
     transform="matrix(0.38200244,0.10235726,-0.10235726,0.38200244,2187.1148,-1799.9728)" /><path
     sodipodi:type="star"
     style="opacity:0.99;fill:none;fill-opacity:1;stroke:#aa4400;stroke-width:50;stroke-linejoin:round;stroke-miterlimit:4;stroke-dasharray:none;stroke-opacity:1;paint-order:stroke markers fill"
     id="path4129-4-2"
     sodipodi:sides="6"
     sodipodi:cx="739.13043"
     sodipodi:cy="527.53625"
     sodipodi:r1="204.99947"
     sodipodi:r2="177.53474"
     sodipodi:arg1="0.78539816"
     sodipodi:arg2="1.3089969"
     inkscape:flatsided="true"
     inkscape:rounded="0"
     inkscape:randomized="0"
     d="M 884.08695,672.49277 686.07267,725.55053 541.11615,580.59402 594.17392,382.57974 792.1882,329.52198 937.14471,474.47849 Z"
     transform="matrix(0.38200244,0.10235726,-0.10235726,0.38200244,2065.5055,-2712.7167)" /><path
     sodipodi:type="star"
     style="opacity:0.99;fill:none;fill-opacity:1;stroke:#aa4400;stroke-width:50;stroke-linejoin:round;stroke-miterlimit:4;stroke-dasharray:none;stroke-opacity:1;paint-order:stroke markers fill"
     id="path4129-4-4-0"
     sodipodi:sides="6"
     sodipodi:cx="739.13043"
     sodipodi:cy="527.53625"
     sodipodi:r1="204.99947"
     sodipodi:r2="177.53474"
     sodipodi:arg1="0.78539816"
     sodipodi:arg2="1.3089969"
     inkscape:flatsided="true"
     inkscape:rounded="0"
     inkscape:randomized="0"
     d="M 884.08695,672.49277 686.07267,725.55053 541.11615,580.59402 594.17392,382.57974 792.1882,329.52198 937.14471,474.47849 Z"
     transform="matrix(0.38200244,0.10235726,-0.10235726,0.38200244,2065.5055,-2572.2945)" /><path
     sodipodi:type="star"
     style="opacity:0.99;fill:none;fill-opacity:1;stroke:#aa4400;stroke-width:50;stroke-linejoin:round;stroke-miterlimit:4;stroke-dasharray:none;stroke-opacity:1;paint-order:stroke markers fill"
     id="path4129-4-0-3"
     sodipodi:sides="6"
     sodipodi:cx="739.13043"
     sodipodi:cy="527.53625"
     sodipodi:r1="204.99947"
     sodipodi:r2="177.53474"
     sodipodi:arg1="0.78539816"
     sodipodi:arg2="1.3089969"
     inkscape:flatsided="true"
     inkscape:rounded="0"
     inkscape:randomized="0"
     d="M 884.08695,672.49277 686.07267,725.55053 541.11615,580.59402 594.17392,382.57974 792.1882,329.52198 937.14471,474.47849 Z"
     transform="matrix(0.38200244,0.10235726,-0.10235726,0.38200244,2065.5055,-2431.8724)" /><path
     sodipodi:type="star"
     style="opacity:0.99;fill:none;fill-opacity:1;stroke:#aa4400;stroke-width:50;stroke-linejoin:round;stroke-miterlimit:4;stroke-dasharray:none;stroke-opacity:1;paint-order:stroke markers fill"
     id="path4129-4-4-3-3"
     sodipodi:sides="6"
     sodipodi:cx="739.13043"
     sodipodi:cy="527.53625"
     sodipodi:r1="204.99947"
     sodipodi:r2="177.53474"
     sodipodi:arg1="0.78539816"
     sodipodi:arg2="1.3089969"
     inkscape:flatsided="true"
     inkscape:rounded="0"
     inkscape:randomized="0"
     d="M 884.08695,672.49277 686.07267,725.55053 541.11615,580.59402 594.17392,382.57974 792.1882,329.52198 937.14471,474.47849 Z"
     transform="matrix(0.38200244,0.10235726,-0.10235726,0.38200244,2065.5055,-2291.4503)" /><path
     sodipodi:type="star"
     style="opacity:0.99;fill:none;fill-opacity:1;stroke:#aa4400;stroke-width:50;stroke-linejoin:round;stroke-miterlimit:4;stroke-dasharray:none;stroke-opacity:1;paint-order:stroke markers fill"
     id="path4129-4-00-5"
     sodipodi:sides="6"
     sodipodi:cx="739.13043"
     sodipodi:cy="527.53625"
     sodipodi:r1="204.99947"
     sodipodi:r2="177.53474"
     sodipodi:arg1="0.78539816"
     sodipodi:arg2="1.3089969"
     inkscape:flatsided="true"
     inkscape:rounded="0"
     inkscape:randomized="0"
     d="M 884.08695,672.49277 686.07267,725.55053 541.11615,580.59402 594.17392,382.57974 792.1882,329.52198 937.14471,474.47849 Z"
     transform="matrix(0.38200244,0.10235726,-0.10235726,0.38200244,2065.5055,-2151.028)" /><path
     sodipodi:type="star"
     style="opacity:0.99;fill:none;fill-opacity:1;stroke:#aa4400;stroke-width:50;stroke-linejoin:round;stroke-miterlimit:4;stroke-dasharray:none;stroke-opacity:1;paint-order:stroke markers fill"
     id="path4129-4-4-4-0"
     sodipodi:sides="6"
     sodipodi:cx="739.13043"
     sodipodi:cy="527.53625"
     sodipodi:r1="204.99947"
     sodipodi:r2="177.53474"
     sodipodi:arg1="0.78539816"
     sodipodi:arg2="1.3089969"
     inkscape:flatsided="true"
     inkscape:rounded="0"
     inkscape:randomized="0"
     d="M 884.08695,672.49277 686.07267,725.55053 541.11615,580.59402 594.17392,382.57974 792.1882,329.52198 937.14471,474.47849 Z"
     transform="matrix(0.38200244,0.10235726,-0.10235726,0.38200244,2065.5055,-2010.6059)" /><path
     sodipodi:type="star"
     style="opacity:0.99;fill:none;fill-opacity:1;stroke:#aa4400;stroke-width:50;stroke-linejoin:round;stroke-miterlimit:4;stroke-dasharray:none;stroke-opacity:1;paint-order:stroke markers fill"
     id="path4129-4-0-7-1"
     sodipodi:sides="6"
     sodipodi:cx="739.13043"
     sodipodi:cy="527.53625"
     sodipodi:r1="204.99947"
     sodipodi:r2="177.53474"
     sodipodi:arg1="0.78539816"
     sodipodi:arg2="1.3089969"
     inkscape:flatsided="true"
     inkscape:rounded="0"
     inkscape:randomized="0"
     d="M 884.08695,672.49277 686.07267,725.55053 541.11615,580.59402 594.17392,382.57974 792.1882,329.52198 937.14471,474.47849 Z"
     transform="matrix(0.38200244,0.10235726,-0.10235726,0.38200244,2065.5055,-1870.1838)" /><path
     sodipodi:type="star"
     style="opacity:0.99;fill:none;fill-opacity:1;stroke:#aa4400;stroke-width:50;stroke-linejoin:round;stroke-miterlimit:4;stroke-dasharray:none;stroke-opacity:1;paint-order:stroke markers fill"
     id="path4129-4-4-3-0-5"
     sodipodi:sides="6"
     sodipodi:cx="739.13043"
     sodipodi:cy="527.53625"
     sodipodi:r1="204.99947"
     sodipodi:r2="177.53474"
     sodipodi:arg1="0.78539816"
     sodipodi:arg2="1.3089969"
     inkscape:flatsided="true"
     inkscape:rounded="0"
     inkscape:randomized="0"
     d="M 884.08695,672.49277 686.07267,725.55053 541.11615,580.59402 594.17392,382.57974 792.1882,329.52198 937.14471,474.47849 Z"
     transform="matrix(0.38200244,0.10235726,-0.10235726,0.38200244,2065.5055,-1729.7616)" /><path
     sodipodi:type="star"
     style="opacity:0.99;fill:none;fill-opacity:1;stroke:#aa4400;stroke-width:50;stroke-linejoin:round;stroke-miterlimit:4;stroke-dasharray:none;stroke-opacity:1;paint-order:stroke markers fill"
     id="path4129-4-4-3-0-5-6"
     sodipodi:sides="6"
     sodipodi:cx="739.13043"
     sodipodi:cy="527.53625"
     sodipodi:r1="204.99947"
     sodipodi:r2="177.53474"
     sodipodi:arg1="0.78539816"
     sodipodi:arg2="1.3089969"
     inkscape:flatsided="true"
     inkscape:rounded="0"
     inkscape:randomized="0"
     d="M 884.08695,672.49277 686.07267,725.55053 541.11615,580.59402 594.17392,382.57974 792.1882,329.52198 937.14471,474.47849 Z"
     transform="matrix(0.38185242,0.10231706,-0.10231706,0.38185242,2187.2363,-1659.4418)" /><circle
     style="opacity:0.99;fill:#aa4400;fill-opacity:1;stroke:none;stroke-width:43.103;stroke-linejoin:round;stroke-miterlimit:4;stroke-dasharray:none;stroke-opacity:1;paint-order:stroke markers fill"
     id="path4586"
     cx="3219.5986"
     cy="-1872.488"
     r="326.06268" /><g
     id="g975"
     transform="matrix(2.0263969,0,0,2.0137319,471.35294,-3545.8935)">
						<g
   id="g977">
							<path
   d="m 1357.51,905.483 c 0,0 126.709,1.311 90.395,-53.757 0,0 6.41,-11.261 -8.271,-21.984 0,0 6.613,-15.108 -12.686,-18.005 0,0 6.678,-10.161 -8.68,-18.028 0,0 4.006,-12.612 -16.357,-17.614 0,0 -2.756,-9.36 -19.529,-6.642 0,0 -9.514,-14.772 -30.045,-12.671 l 3.256,148.703"
   id="path979"
   style="fill:#ab4501;fill-opacity:1;fill-rule:evenodd" />
							<path
   d="m 1354.936,905.414 c 0,0 -126.708,1.312 -90.396,-53.757 0,0 -6.408,-11.26 8.271,-21.983 0,0 -6.613,-15.109 12.688,-18.005 0,0 -6.678,-10.162 8.678,-18.029 0,0 -4.006,-12.611 16.359,-17.614 0,0 2.754,-9.359 19.527,-6.641 0,0 9.516,-14.772 30.046,-12.672 l -3.254,148.704"
   id="path981"
   style="fill:#ab4501;fill-opacity:1;fill-rule:evenodd" />
							<g
   id="g983">
								<path
   d="m 1381.74,770.405 c 0,0 -6.814,-8.85 -25.795,-9.833 v 15.077 c 0,0 21.252,0.492 25.795,-5.244 z"
   id="path985"
   style="fill:#ffd42a;fill-opacity:1;fill-rule:evenodd" />
								<path
   d="m 1400.721,778.272 c 0,0 -1.947,-11.615 -21.656,-2.612 0,0 -11.113,4.415 -23.119,3.595 l 0.813,11.473 c -10e-4,0 30.983,0.164 43.962,-12.456 z"
   id="path987"
   style="fill:#ffd42a;fill-opacity:1;fill-rule:evenodd" />
								<path
   d="m 1415.688,792.408 c 0,0 2.189,-13.03 -13.385,-12.169 0,0 -9.004,12.538 -45.141,13.644 v 14.504 c 0,0 43.072,0.738 58.526,-15.979 z"
   id="path989"
   style="fill:#ffd42a;fill-opacity:1;fill-rule:evenodd" />
								<path
   d="m 1417.998,795.972 c 0,0 -15.816,15.734 -60.836,16.225 v 17.456 c 0,0 41.125,0.162 65.623,-16.842 0,10e-4 10.869,-5.858 -4.787,-16.839 z"
   id="path991"
   style="fill:#ffd42a;fill-opacity:1;fill-rule:evenodd" />
								<path
   d="M 1430.166,813.919"
   id="path993"
   style="fill:#fcb040;fill-rule:evenodd" />
								<path
   d="m 1430.166,813.919 c 0,0 -24.902,17.945 -72.273,19.42 v 20.814 c 0,0 66.189,-3.278 79.492,-25.239 0,0 5.029,-6.884 -7.219,-14.995 z"
   id="path995"
   style="fill:#ffd42a;fill-opacity:1;fill-rule:evenodd" />
								<path
   d="m 1439.656,832.603 c 0,0 -20.928,24.337 -81.764,23.846 v 20.157 c 0,0 61.322,0.491 84.928,-22.001 0,-10e-4 9.735,-9.219 -3.164,-22.002 z"
   id="path997"
   style="fill:#ffd42a;fill-opacity:1;fill-rule:evenodd" />
								<path
   d="m 1446.342,856.448 c 0,0 -26.639,23.601 -88.449,23.928 l -0.73,20.979 c 0,0 66.826,-2.951 89.18,-19.666 -10e-4,-10e-4 9.118,-8.852 -10e-4,-25.241 z"
   id="path999"
   style="fill:#ffd42a;fill-opacity:1;fill-rule:evenodd" />
								<g
   id="g1001">
									<path
   d="m 1331.124,770.405 c 0,0 6.813,-8.85 25.796,-9.833 v 15.077 c 0,0 -21.253,0.492 -25.796,-5.244 z"
   id="path1003"
   style="fill:#ffd42a;fill-opacity:1;fill-rule:evenodd" />
									<path
   d="m 1312.144,778.272 c 0,0 1.945,-11.615 21.656,-2.612 0,0 11.113,4.415 23.12,3.595 l -0.813,11.473 c 0,0 -30.985,0.164 -43.963,-12.456 z"
   id="path1005"
   style="fill:#ffd42a;fill-opacity:1;fill-rule:evenodd" />
									<path
   d="m 1297.177,792.408 c 0,0 -2.189,-13.03 13.385,-12.169 0,0 9.004,12.538 45.142,13.644 v 14.504 c -10e-4,0 -43.074,0.738 -58.527,-15.979 z"
   id="path1007"
   style="fill:#ffd42a;fill-opacity:1;fill-rule:evenodd" />
									<path
   d="m 1294.866,795.972 c 0,0 15.816,15.734 60.837,16.225 v 17.456 c 0,0 -41.126,0.162 -65.624,-16.842 0,10e-4 -10.869,-5.858 4.787,-16.839 z"
   id="path1009"
   style="fill:#ffd42a;fill-opacity:1;fill-rule:evenodd" />
									<path
   d="M 1282.698,813.919"
   id="path1011"
   style="fill:#fcb040;fill-rule:evenodd" />
									<path
   d="m 1282.698,813.919 c 0,0 24.902,17.945 72.274,19.42 v 20.814 c 0,0 -66.19,-3.278 -79.493,-25.239 0,0 -5.029,-6.884 7.219,-14.995 z"
   id="path1013"
   style="fill:#ffd42a;fill-opacity:1;fill-rule:evenodd" />
									<path
   d="m 1273.208,832.603 c 0,0 20.928,24.337 81.765,23.846 v 20.157 c 0,0 -61.323,0.491 -84.927,-22.001 0,-10e-4 -9.734,-9.219 3.162,-22.002 z"
   id="path1015"
   style="fill:#ffd42a;fill-opacity:1;fill-rule:evenodd" />
									<path
   d="m 1266.522,856.448 c 0,0 26.639,23.601 88.45,23.928 l 0.73,20.979 c 0,0 -66.825,-2.951 -89.181,-19.666 10e-4,-10e-4 -9.118,-8.852 10e-4,-25.241 z"
   id="path1017"
   style="fill:#ffd42a;fill-opacity:1;fill-rule:evenodd" />
								</g>
								<path
   d="m 1357.162,793.883 c 0,0 -1.086,0.017 -2.189,-0.025 -1.103,-0.042 0,14.534 0,14.534 0,0 2.512,0.169 2.918,0"
   id="path1019"
   style="fill:#ffd42a;fill-opacity:1;fill-rule:evenodd" />
								<path
   d="m 1356.92,790.728 c 0,0 -1.602,-0.006 -1.867,-0.011 -0.264,-0.006 0.021,-7.978 3.873,-3.922"
   id="path1021"
   style="fill:#ffd42a;fill-opacity:1;fill-rule:evenodd" />
								<path
   d="m 1359.111,880.366 c 0,0 -5.963,0.062 -7.425,0 -1.461,-0.063 2.976,20.936 2.976,20.936 0,0 1.883,0.104 4.205,-0.037"
   id="path1023"
   style="fill:#ffd42a;fill-opacity:1;fill-rule:evenodd" />
								<path
   d="m 1359.111,856.454 c 0,0 -8.073,0.061 -9.597,0 -1.525,-0.061 3.265,20.137 3.265,20.137 0,0 6.412,0.023 7.953,-0.01"
   id="path1025"
   style="fill:#ffd42a;fill-opacity:1;fill-rule:evenodd" />
								<path
   d="m 1359.609,833.277 c 0,0 -5.119,0.098 -8.286,-0.087 -3.168,-0.184 -2.109,11.457 -2.109,11.457 l 4.483,9.432 c 0,0 2.145,0.254 5.912,-0.029"
   id="path1027"
   style="fill:#ffd42a;fill-opacity:1;fill-rule:evenodd" />
								<path
   d="m 1360.453,812.133 c 0,0 -6.107,0.107 -9.505,-0.048 -3.396,-0.154 1.104,15.723 1.104,15.723 l 2.92,1.846 c 0,0 2.133,0.031 3.957,-0.026"
   id="path1029"
   style="fill:#ffd42a;fill-opacity:1;fill-rule:evenodd" />
							</g>
						</g>
						<g
   id="g1031">
							
							
							
							
							
							
							
							
						</g>
						<path
   d="m 1358.025,760.715 c 0,0 -1.621,-0.257 -4.469,0.124 -2.849,0.38 4.813,-0.596 4.813,-0.596"
   id="path1049"
   style="fill:#933c06;fill-rule:evenodd" />
						
						<g
   id="g1053">
							
							<path
   d="M 1314.276,871.179"
   id="path1057"
   style="fill:none" />
							
							
							
							
							
						</g>
						<path
   d="m 1357.588,882.226 c 0,0 -0.705,-0.011 -0.924,0.004 -0.219,0.015 0.502,0.707 1.002,0.707"
   id="path1069"
   style="fill:#923d05;fill-rule:evenodd" />
						<g
   id="g1071"
   style="fill:#d1a155;fill-opacity:1">
							<g
   id="g1073"
   style="fill:#ab4500;fill-opacity:1">
								<path
   d="m 1365.658,903.188 c 0,0 2.873,-20.973 -8.496,-20.973 v 20.973 z"
   id="path1075"
   style="fill:#ab4500;fill-opacity:1;fill-rule:evenodd" />
								<path
   d="m 1348.667,903.188 c 0,0 -2.873,-20.973 8.495,-20.973 v 20.973 z"
   id="path1077"
   style="fill:#ab4500;fill-opacity:1;fill-rule:evenodd" />
								<rect
   width="1.6799999"
   height="19.066"
   x="1356.213"
   y="883.25299"
   id="rect1079"
   style="fill:#ab4500;fill-opacity:1;fill-rule:evenodd" />
							</g>
							
						</g>
						<path
   d="m 1381.641,851.653 c 0,0 -31.747,3.495 -56.444,-0.967 -24.699,-4.465 8.449,4.843 8.449,4.843 0,0 22.112,2.841 47.218,-0.169 25.105,-3.01 0.777,-3.707 0.777,-3.707 z"
   id="path1083"
   style="fill:#ab4501;fill-opacity:1;fill-rule:evenodd" />
					</g><text
     xml:space="preserve"
     style="font-weight:bold;font-size:53.0363px;line-height:1.25;font-family:'Linux Biolinum Capitals';-inkscape-font-specification:'Linux Biolinum Capitals Bold';letter-spacing:0px;fill:#aa4400;fill-opacity:1"
     id="text4592"
     transform="matrix(1.0697076,0,0,1.0697076,-224.43415,130.52953)"><textPath
       xlink:href="#path4586"
       id="textPath4594"><tspan
         id="tspan4590"
         style="font-size:53.0363px;fill:#aa4400;fill-opacity:1">★ ★ ★ ★ ★ ★ ★ ★ ★ ★ ★ ★ ★ ★ ★ ★ ★ ★ ★ ★ ★ ★ ★ ★ ★ ★ ★ ★ ★ ★ ★ ★ ★ ★ ★ ★ ★ ★ ★ ★ ★ ★ ★ ★ ★ </tspan></textPath></text></g></svg>
