<?xml version="1.0" encoding="UTF-8" standalone="no"?>
<svg
   xmlns:dc="http://purl.org/dc/elements/1.1/"
   xmlns:cc="http://creativecommons.org/ns#"
   xmlns:rdf="http://www.w3.org/1999/02/22-rdf-syntax-ns#"
   xmlns:svg="http://www.w3.org/2000/svg"
   xmlns="http://www.w3.org/2000/svg"
   xmlns:sodipodi="http://sodipodi.sourceforge.net/DTD/sodipodi-0.dtd"
   xmlns:inkscape="http://www.inkscape.org/namespaces/inkscape"
   version="1.1"
   width="1600"
   height="1000"
   id="Layer_1"
   xml:space="preserve"
   sodipodi:docname="utah2.svg"
   inkscape:version="1.0.1 (3bc2e813f5, 2020-09-07)"
   inkscape:export-filename="D:\Docs\Flag_of_Utah2.png"
   inkscape:export-xdpi="420"
   inkscape:export-ydpi="420"><sodipodi:namedview
   pagecolor="#ffffff"
   bordercolor="#666666"
   borderopacity="1"
   objecttolerance="10"
   gridtolerance="10"
   guidetolerance="10"
   inkscape:pageopacity="0"
   inkscape:pageshadow="2"
   inkscape:window-width="1920"
   inkscape:window-height="1227"
   id="namedview2443"
   showgrid="false"
   inkscape:snap-bbox="true"
   inkscape:bbox-paths="true"
   inkscape:bbox-nodes="true"
   inkscape:snap-bbox-edge-midpoints="true"
   inkscape:snap-bbox-midpoints="true"
   inkscape:snap-text-baseline="true"
   inkscape:object-paths="true"
   inkscape:snap-intersection-paths="true"
   inkscape:snap-smooth-nodes="true"
   inkscape:snap-midpoints="true"
   inkscape:snap-nodes="true"
   inkscape:zoom="0.345"
   inkscape:cx="1944.146"
   inkscape:cy="1143.0885"
   inkscape:window-x="-8"
   inkscape:window-y="-8"
   inkscape:window-maximized="1"
   inkscape:current-layer="Layer_1"
   inkscape:snap-page="true" /><defs
   id="defs1625">
	
	
	
	
	
	
	
	
	
	
	
	
	
	
	
	
	
	
	
	
	
	
	
	
	
	
	
	
	
	
	
	
	
	
	
	
	
	
	
	
	
	
	
	
	
	
	
	
	
	
	
	

		
		
	
		
		
		
		
	
		
		
	
		
		
		
		
	
		
		
		
		
		
	
		
		
		
		
	
		
		
	
		
		
		
		
		
		
		
		
		
		
		
		
		
		
		
		
		
		
		
		
		
		
		
	
		
		
		
		
	
		
		
	
		
		
		
		
		
	
		
		
	
		
		
	
		
		
		
		
		
		
		
		
		
		
		
		
		
		
		
		
		
		
		
		
		
		
		
		
		
		
		
		
		
		
		
		
		
		
		
		
		
		
		
		
		
		
		
		
		
		
		
		
		
		
		
		
		
		
		
		
		
		
		
		
		
		
		
		
		
		
		
		
		
		
		
		
		
		
		
		
		
		
		
		
		
		
		
		
		
		
		
		
		
		
		
		
		
		
	
		
		
		
		
		
		
		
		
		
		
		
		
		
		
		
		
		
		
		
		
		
		
		
		
		
		
		
		
		
		
		
		
		
		
		
		
		
		
		
		
		
		
		
		
		
		
		
		
		
		
		
		
		
		
		
		
		
		
		
		
		
		
		
		
		
		
		
		
		
		
		
		
		
		
		
		
		
		
		
		
		
		
		
		
		
		
		
		
		
		
		
		
		
		
		
		
		
		
		
		
		
		
		
		
		
	
			
			
			
			
			
			
			
		
				
				
				
				
				
				
				
				
				
				
				
				
				
				
				
				
				
			
					
					
				</defs>
<metadata
   id="metadata9405"><rdf:RDF><cc:Work
       rdf:about=""><dc:title></dc:title><dc:format>image/svg+xml</dc:format><dc:type
         rdf:resource="http://purl.org/dc/dcmitype/StillImage" /></cc:Work></rdf:RDF></metadata><rect
   width="1600"
   height="1000"
   x="3.7500002e-05"
   y="-3.7109374e-05"
   id="rect5-3"
   style="fill:#ffd42a;fill-opacity:1;fill-rule:evenodd;stroke-width:1"
   inkscape:export-xdpi="420"
   inkscape:export-ydpi="420" /><path
   sodipodi:type="star"
   style="opacity:0.99;fill:none;fill-opacity:1;stroke:#aa4400;stroke-width:50;stroke-linejoin:round;stroke-miterlimit:4;stroke-dasharray:none;stroke-opacity:1;paint-order:stroke markers fill"
   id="path4129-4-4"
   sodipodi:sides="6"
   sodipodi:cx="739.13043"
   sodipodi:cy="527.53625"
   sodipodi:r1="204.99947"
   sodipodi:r2="177.53474"
   sodipodi:arg1="0.78539816"
   sodipodi:arg2="1.3089969"
   inkscape:flatsided="true"
   inkscape:rounded="0"
   inkscape:randomized="0"
   transform="matrix(0.38096279,0.10207869,-0.10207869,0.38096279,105.53761,-196.54113)"
   d="M 884.08695,672.49277 686.07267,725.55053 541.11615,580.59402 594.17392,382.57974 792.1882,329.52198 937.14471,474.47849 Z" /><path
   sodipodi:type="star"
   style="opacity:0.99;fill:none;fill-opacity:1;stroke:#aa4400;stroke-width:50;stroke-linejoin:round;stroke-miterlimit:4;stroke-dasharray:none;stroke-opacity:1;paint-order:stroke markers fill"
   id="path4129-4-0"
   sodipodi:sides="6"
   sodipodi:cx="739.13043"
   sodipodi:cy="527.53625"
   sodipodi:r1="204.99947"
   sodipodi:r2="177.53474"
   sodipodi:arg1="0.78539816"
   sodipodi:arg2="1.3089969"
   inkscape:flatsided="true"
   inkscape:rounded="0"
   inkscape:randomized="0"
   transform="matrix(0.38096279,0.10207869,-0.10207869,0.38096279,105.53761,-56.501204)"
   d="M 884.08695,672.49277 686.07267,725.55053 541.11615,580.59402 594.17392,382.57974 792.1882,329.52198 937.14471,474.47849 Z" /><path
   sodipodi:type="star"
   style="opacity:0.99;fill:none;fill-opacity:1;stroke:#aa4400;stroke-width:50;stroke-linejoin:round;stroke-miterlimit:4;stroke-dasharray:none;stroke-opacity:1;paint-order:stroke markers fill"
   id="path4129-4-8-0"
   sodipodi:sides="6"
   sodipodi:cx="739.13043"
   sodipodi:cy="527.53625"
   sodipodi:r1="204.99947"
   sodipodi:r2="177.53474"
   sodipodi:arg1="0.78539816"
   sodipodi:arg2="1.3089969"
   inkscape:flatsided="true"
   inkscape:rounded="0"
   inkscape:randomized="0"
   transform="matrix(0.38096279,0.10207869,-0.10207869,0.38096279,-15.740621,-126.52132)"
   d="M 884.08695,672.49277 686.07267,725.55053 541.11615,580.59402 594.17392,382.57974 792.1882,329.52198 937.14471,474.47849 Z" /><path
   sodipodi:type="star"
   style="opacity:0.99;fill:none;fill-opacity:1;stroke:#aa4400;stroke-width:50;stroke-linejoin:round;stroke-miterlimit:4;stroke-dasharray:none;stroke-opacity:1;paint-order:stroke markers fill"
   id="path4129-4-4-3"
   sodipodi:sides="6"
   sodipodi:cx="739.13043"
   sodipodi:cy="527.53625"
   sodipodi:r1="204.99947"
   sodipodi:r2="177.53474"
   sodipodi:arg1="0.78539816"
   sodipodi:arg2="1.3089969"
   inkscape:flatsided="true"
   inkscape:rounded="0"
   inkscape:randomized="0"
   transform="matrix(0.38096279,0.10207869,-0.10207869,0.38096279,105.53761,83.538627)"
   d="M 884.08695,672.49277 686.07267,725.55053 541.11615,580.59402 594.17392,382.57974 792.1882,329.52198 937.14471,474.47849 Z" /><path
   sodipodi:type="star"
   style="opacity:0.99;fill:none;fill-opacity:1;stroke:#aa4400;stroke-width:50;stroke-linejoin:round;stroke-miterlimit:4;stroke-dasharray:none;stroke-opacity:1;paint-order:stroke markers fill"
   id="path4129-4-8-8-7"
   sodipodi:sides="6"
   sodipodi:cx="739.13043"
   sodipodi:cy="527.53625"
   sodipodi:r1="204.99947"
   sodipodi:r2="177.53474"
   sodipodi:arg1="0.78539816"
   sodipodi:arg2="1.3089969"
   inkscape:flatsided="true"
   inkscape:rounded="0"
   inkscape:randomized="0"
   transform="matrix(0.38096279,0.10207869,-0.10207869,0.38096279,-15.740621,13.518811)"
   d="M 884.08695,672.49277 686.07267,725.55053 541.11615,580.59402 594.17392,382.57974 792.1882,329.52198 937.14471,474.47849 Z" /><path
   sodipodi:type="star"
   style="opacity:0.99;fill:none;fill-opacity:1;stroke:#aa4400;stroke-width:50;stroke-linejoin:round;stroke-miterlimit:4;stroke-dasharray:none;stroke-opacity:1;paint-order:stroke markers fill"
   id="path4129-4-00"
   sodipodi:sides="6"
   sodipodi:cx="739.13043"
   sodipodi:cy="527.53625"
   sodipodi:r1="204.99947"
   sodipodi:r2="177.53474"
   sodipodi:arg1="0.78539816"
   sodipodi:arg2="1.3089969"
   inkscape:flatsided="true"
   inkscape:rounded="0"
   inkscape:randomized="0"
   transform="matrix(0.38096279,0.10207869,-0.10207869,0.38096279,105.53761,223.57876)"
   d="M 884.08695,672.49277 686.07267,725.55053 541.11615,580.59402 594.17392,382.57974 792.1882,329.52198 937.14471,474.47849 Z" /><path
   sodipodi:type="star"
   style="opacity:0.99;fill:none;fill-opacity:1;stroke:#aa4400;stroke-width:50;stroke-linejoin:round;stroke-miterlimit:4;stroke-dasharray:none;stroke-opacity:1;paint-order:stroke markers fill"
   id="path4129-4-8-6"
   sodipodi:sides="6"
   sodipodi:cx="739.13043"
   sodipodi:cy="527.53625"
   sodipodi:r1="204.99947"
   sodipodi:r2="177.53474"
   sodipodi:arg1="0.78539816"
   sodipodi:arg2="1.3089969"
   inkscape:flatsided="true"
   inkscape:rounded="0"
   inkscape:randomized="0"
   transform="matrix(0.38096279,0.10207869,-0.10207869,0.38096279,-15.740621,153.55864)"
   d="M 884.08695,672.49277 686.07267,725.55053 541.11615,580.59402 594.17392,382.57974 792.1882,329.52198 937.14471,474.47849 Z" /><path
   sodipodi:type="star"
   style="opacity:0.99;fill:none;fill-opacity:1;stroke:#aa4400;stroke-width:50;stroke-linejoin:round;stroke-miterlimit:4;stroke-dasharray:none;stroke-opacity:1;paint-order:stroke markers fill"
   id="path4129-4-4-4"
   sodipodi:sides="6"
   sodipodi:cx="739.13043"
   sodipodi:cy="527.53625"
   sodipodi:r1="204.99947"
   sodipodi:r2="177.53474"
   sodipodi:arg1="0.78539816"
   sodipodi:arg2="1.3089969"
   inkscape:flatsided="true"
   inkscape:rounded="0"
   inkscape:randomized="0"
   transform="matrix(0.38096279,0.10207869,-0.10207869,0.38096279,105.53761,363.61869)"
   d="M 884.08695,672.49277 686.07267,725.55053 541.11615,580.59402 594.17392,382.57974 792.1882,329.52198 937.14471,474.47849 Z" /><path
   sodipodi:type="star"
   style="opacity:0.99;fill:none;fill-opacity:1;stroke:#aa4400;stroke-width:50;stroke-linejoin:round;stroke-miterlimit:4;stroke-dasharray:none;stroke-opacity:1;paint-order:stroke markers fill"
   id="path4129-4-8-8-9"
   sodipodi:sides="6"
   sodipodi:cx="739.13043"
   sodipodi:cy="527.53625"
   sodipodi:r1="204.99947"
   sodipodi:r2="177.53474"
   sodipodi:arg1="0.78539816"
   sodipodi:arg2="1.3089969"
   inkscape:flatsided="true"
   inkscape:rounded="0"
   inkscape:randomized="0"
   transform="matrix(0.38096279,0.10207869,-0.10207869,0.38096279,-15.740621,293.59877)"
   d="M 884.08695,672.49277 686.07267,725.55053 541.11615,580.59402 594.17392,382.57974 792.1882,329.52198 937.14471,474.47849 Z" /><path
   sodipodi:type="star"
   style="opacity:0.99;fill:none;fill-opacity:1;stroke:#aa4400;stroke-width:50;stroke-linejoin:round;stroke-miterlimit:4;stroke-dasharray:none;stroke-opacity:1;paint-order:stroke markers fill"
   id="path4129-4-0-7"
   sodipodi:sides="6"
   sodipodi:cx="739.13043"
   sodipodi:cy="527.53625"
   sodipodi:r1="204.99947"
   sodipodi:r2="177.53474"
   sodipodi:arg1="0.78539816"
   sodipodi:arg2="1.3089969"
   inkscape:flatsided="true"
   inkscape:rounded="0"
   inkscape:randomized="0"
   transform="matrix(0.38096279,0.10207869,-0.10207869,0.38096279,105.53761,503.65862)"
   d="M 884.08695,672.49277 686.07267,725.55053 541.11615,580.59402 594.17392,382.57974 792.1882,329.52198 937.14471,474.47849 Z" /><path
   sodipodi:type="star"
   style="opacity:0.99;fill:none;fill-opacity:1;stroke:#aa4400;stroke-width:50;stroke-linejoin:round;stroke-miterlimit:4;stroke-dasharray:none;stroke-opacity:1;paint-order:stroke markers fill"
   id="path4129-4-8-0-0"
   sodipodi:sides="6"
   sodipodi:cx="739.13043"
   sodipodi:cy="527.53625"
   sodipodi:r1="204.99947"
   sodipodi:r2="177.53474"
   sodipodi:arg1="0.78539816"
   sodipodi:arg2="1.3089969"
   inkscape:flatsided="true"
   inkscape:rounded="0"
   inkscape:randomized="0"
   transform="matrix(0.38096279,0.10207869,-0.10207869,0.38096279,-15.740621,433.6387)"
   d="M 884.08695,672.49277 686.07267,725.55053 541.11615,580.59402 594.17392,382.57974 792.1882,329.52198 937.14471,474.47849 Z" /><path
   sodipodi:type="star"
   style="opacity:0.99;fill:none;fill-opacity:1;stroke:#aa4400;stroke-width:50;stroke-linejoin:round;stroke-miterlimit:4;stroke-dasharray:none;stroke-opacity:1;paint-order:stroke markers fill"
   id="path4129-4-4-3-0"
   sodipodi:sides="6"
   sodipodi:cx="739.13043"
   sodipodi:cy="527.53625"
   sodipodi:r1="204.99947"
   sodipodi:r2="177.53474"
   sodipodi:arg1="0.78539816"
   sodipodi:arg2="1.3089969"
   inkscape:flatsided="true"
   inkscape:rounded="0"
   inkscape:randomized="0"
   transform="matrix(0.38096279,0.10207869,-0.10207869,0.38096279,105.53761,643.69865)"
   d="M 884.08695,672.49277 686.07267,725.55053 541.11615,580.59402 594.17392,382.57974 792.1882,329.52198 937.14471,474.47849 Z" /><path
   sodipodi:type="star"
   style="opacity:0.99;fill:none;fill-opacity:1;stroke:#aa4400;stroke-width:50;stroke-linejoin:round;stroke-miterlimit:4;stroke-dasharray:none;stroke-opacity:1;paint-order:stroke markers fill"
   id="path4129-4-8-8-7-2"
   sodipodi:sides="6"
   sodipodi:cx="739.13043"
   sodipodi:cy="527.53625"
   sodipodi:r1="204.99947"
   sodipodi:r2="177.53474"
   sodipodi:arg1="0.78539816"
   sodipodi:arg2="1.3089969"
   inkscape:flatsided="true"
   inkscape:rounded="0"
   inkscape:randomized="0"
   transform="matrix(0.38096279,0.10207869,-0.10207869,0.38096279,-15.740621,573.67863)"
   d="M 884.08695,672.49277 686.07267,725.55053 541.11615,580.59402 594.17392,382.57974 792.1882,329.52198 937.14471,474.47849 Z" /><path
   sodipodi:type="star"
   style="opacity:0.99;fill:none;fill-opacity:1;stroke:#aa4400;stroke-width:50;stroke-linejoin:round;stroke-miterlimit:4;stroke-dasharray:none;stroke-opacity:1;paint-order:stroke markers fill"
   id="path4129-4-4-0"
   sodipodi:sides="6"
   sodipodi:cx="739.13043"
   sodipodi:cy="527.53625"
   sodipodi:r1="204.99947"
   sodipodi:r2="177.53474"
   sodipodi:arg1="0.78539816"
   sodipodi:arg2="1.3089969"
   inkscape:flatsided="true"
   inkscape:rounded="0"
   inkscape:randomized="0"
   transform="matrix(0.38096279,0.10207869,-0.10207869,0.38096279,-137.01895,-196.54113)"
   d="M 884.08695,672.49277 686.07267,725.55053 541.11615,580.59402 594.17392,382.57974 792.1882,329.52198 937.14471,474.47849 Z" /><path
   sodipodi:type="star"
   style="opacity:0.99;fill:none;fill-opacity:1;stroke:#aa4400;stroke-width:50;stroke-linejoin:round;stroke-miterlimit:4;stroke-dasharray:none;stroke-opacity:1;paint-order:stroke markers fill"
   id="path4129-4-0-3"
   sodipodi:sides="6"
   sodipodi:cx="739.13043"
   sodipodi:cy="527.53625"
   sodipodi:r1="204.99947"
   sodipodi:r2="177.53474"
   sodipodi:arg1="0.78539816"
   sodipodi:arg2="1.3089969"
   inkscape:flatsided="true"
   inkscape:rounded="0"
   inkscape:randomized="0"
   transform="matrix(0.38096279,0.10207869,-0.10207869,0.38096279,-137.01895,-56.501204)"
   d="M 884.08695,672.49277 686.07267,725.55053 541.11615,580.59402 594.17392,382.57974 792.1882,329.52198 937.14471,474.47849 Z" /><path
   sodipodi:type="star"
   style="opacity:0.99;fill:none;fill-opacity:1;stroke:#aa4400;stroke-width:50;stroke-linejoin:round;stroke-miterlimit:4;stroke-dasharray:none;stroke-opacity:1;paint-order:stroke markers fill"
   id="path4129-4-4-3-3"
   sodipodi:sides="6"
   sodipodi:cx="739.13043"
   sodipodi:cy="527.53625"
   sodipodi:r1="204.99947"
   sodipodi:r2="177.53474"
   sodipodi:arg1="0.78539816"
   sodipodi:arg2="1.3089969"
   inkscape:flatsided="true"
   inkscape:rounded="0"
   inkscape:randomized="0"
   transform="matrix(0.38096279,0.10207869,-0.10207869,0.38096279,-137.01895,83.538726)"
   d="M 884.08695,672.49277 686.07267,725.55053 541.11615,580.59402 594.17392,382.57974 792.1882,329.52198 937.14471,474.47849 Z" /><path
   sodipodi:type="star"
   style="opacity:0.99;fill:none;fill-opacity:1;stroke:#aa4400;stroke-width:50;stroke-linejoin:round;stroke-miterlimit:4;stroke-dasharray:none;stroke-opacity:1;paint-order:stroke markers fill"
   id="path4129-4-00-5"
   sodipodi:sides="6"
   sodipodi:cx="739.13043"
   sodipodi:cy="527.53625"
   sodipodi:r1="204.99947"
   sodipodi:r2="177.53474"
   sodipodi:arg1="0.78539816"
   sodipodi:arg2="1.3089969"
   inkscape:flatsided="true"
   inkscape:rounded="0"
   inkscape:randomized="0"
   transform="matrix(0.38096279,0.10207869,-0.10207869,0.38096279,-137.01895,223.57886)"
   d="M 884.08695,672.49277 686.07267,725.55053 541.11615,580.59402 594.17392,382.57974 792.1882,329.52198 937.14471,474.47849 Z" /><path
   sodipodi:type="star"
   style="opacity:0.99;fill:none;fill-opacity:1;stroke:#aa4400;stroke-width:50;stroke-linejoin:round;stroke-miterlimit:4;stroke-dasharray:none;stroke-opacity:1;paint-order:stroke markers fill"
   id="path4129-4-4-4-0"
   sodipodi:sides="6"
   sodipodi:cx="739.13043"
   sodipodi:cy="527.53625"
   sodipodi:r1="204.99947"
   sodipodi:r2="177.53474"
   sodipodi:arg1="0.78539816"
   sodipodi:arg2="1.3089969"
   inkscape:flatsided="true"
   inkscape:rounded="0"
   inkscape:randomized="0"
   transform="matrix(0.38096279,0.10207869,-0.10207869,0.38096279,-137.01895,363.61879)"
   d="M 884.08695,672.49277 686.07267,725.55053 541.11615,580.59402 594.17392,382.57974 792.1882,329.52198 937.14471,474.47849 Z" /><path
   sodipodi:type="star"
   style="opacity:0.99;fill:none;fill-opacity:1;stroke:#aa4400;stroke-width:50;stroke-linejoin:round;stroke-miterlimit:4;stroke-dasharray:none;stroke-opacity:1;paint-order:stroke markers fill"
   id="path4129-4-0-7-1"
   sodipodi:sides="6"
   sodipodi:cx="739.13043"
   sodipodi:cy="527.53625"
   sodipodi:r1="204.99947"
   sodipodi:r2="177.53474"
   sodipodi:arg1="0.78539816"
   sodipodi:arg2="1.3089969"
   inkscape:flatsided="true"
   inkscape:rounded="0"
   inkscape:randomized="0"
   transform="matrix(0.38096279,0.10207869,-0.10207869,0.38096279,-137.01895,503.65872)"
   d="M 884.08695,672.49277 686.07267,725.55053 541.11615,580.59402 594.17392,382.57974 792.1882,329.52198 937.14471,474.47849 Z" /><path
   sodipodi:type="star"
   style="opacity:0.99;fill:none;fill-opacity:1;stroke:#aa4400;stroke-width:50;stroke-linejoin:round;stroke-miterlimit:4;stroke-dasharray:none;stroke-opacity:1;paint-order:stroke markers fill"
   id="path4129-4-4-3-0-5"
   sodipodi:sides="6"
   sodipodi:cx="739.13043"
   sodipodi:cy="527.53625"
   sodipodi:r1="204.99947"
   sodipodi:r2="177.53474"
   sodipodi:arg1="0.78539816"
   sodipodi:arg2="1.3089969"
   inkscape:flatsided="true"
   inkscape:rounded="0"
   inkscape:randomized="0"
   transform="matrix(0.38096279,0.10207869,-0.10207869,0.38096279,-137.01895,643.69875)"
   d="M 884.08695,672.49277 686.07267,725.55053 541.11615,580.59402 594.17392,382.57974 792.1882,329.52198 937.14471,474.47849 Z" /><circle
   style="opacity:0.99;fill:#aa4400;fill-opacity:1;stroke:none;stroke-width:43.103;stroke-linejoin:round;stroke-miterlimit:4;stroke-dasharray:none;stroke-opacity:1;paint-order:stroke markers fill"
   id="path4586"
   cx="1016.7003"
   cy="499.99997"
   r="326.06268" /><g
   id="g975"
   transform="matrix(2.0263969,0,0,2.0137319,-1731.5455,-1173.4055)">
						<g
   id="g977">
							<path
   d="m 1357.51,905.483 c 0,0 126.709,1.311 90.395,-53.757 0,0 6.41,-11.261 -8.271,-21.984 0,0 6.613,-15.108 -12.686,-18.005 0,0 6.678,-10.161 -8.68,-18.028 0,0 4.006,-12.612 -16.357,-17.614 0,0 -2.756,-9.36 -19.529,-6.642 0,0 -9.514,-14.772 -30.045,-12.671 l 3.256,148.703"
   id="path979"
   style="fill:#ab4501;fill-opacity:1;fill-rule:evenodd" />
							<path
   d="m 1354.936,905.414 c 0,0 -126.708,1.312 -90.396,-53.757 0,0 -6.408,-11.26 8.271,-21.983 0,0 -6.613,-15.109 12.688,-18.005 0,0 -6.678,-10.162 8.678,-18.029 0,0 -4.006,-12.611 16.359,-17.614 0,0 2.754,-9.359 19.527,-6.641 0,0 9.516,-14.772 30.046,-12.672 l -3.254,148.704"
   id="path981"
   style="fill:#ab4501;fill-opacity:1;fill-rule:evenodd" />
							<g
   id="g983">
								<path
   d="m 1381.74,770.405 c 0,0 -6.814,-8.85 -25.795,-9.833 v 15.077 c 0,0 21.252,0.492 25.795,-5.244 z"
   id="path985"
   style="fill:#ffd42a;fill-opacity:1;fill-rule:evenodd" />
								<path
   d="m 1400.721,778.272 c 0,0 -1.947,-11.615 -21.656,-2.612 0,0 -11.113,4.415 -23.119,3.595 l 0.813,11.473 c -10e-4,0 30.983,0.164 43.962,-12.456 z"
   id="path987"
   style="fill:#ffd42a;fill-opacity:1;fill-rule:evenodd" />
								<path
   d="m 1415.688,792.408 c 0,0 2.189,-13.03 -13.385,-12.169 0,0 -9.004,12.538 -45.141,13.644 v 14.504 c 0,0 43.072,0.738 58.526,-15.979 z"
   id="path989"
   style="fill:#ffd42a;fill-opacity:1;fill-rule:evenodd" />
								<path
   d="m 1417.998,795.972 c 0,0 -15.816,15.734 -60.836,16.225 v 17.456 c 0,0 41.125,0.162 65.623,-16.842 0,10e-4 10.869,-5.858 -4.787,-16.839 z"
   id="path991"
   style="fill:#ffd42a;fill-opacity:1;fill-rule:evenodd" />
								<path
   d="M 1430.166,813.919"
   id="path993"
   style="fill:#fcb040;fill-rule:evenodd" />
								<path
   d="m 1430.166,813.919 c 0,0 -24.902,17.945 -72.273,19.42 v 20.814 c 0,0 66.189,-3.278 79.492,-25.239 0,0 5.029,-6.884 -7.219,-14.995 z"
   id="path995"
   style="fill:#ffd42a;fill-opacity:1;fill-rule:evenodd" />
								<path
   d="m 1439.656,832.603 c 0,0 -20.928,24.337 -81.764,23.846 v 20.157 c 0,0 61.322,0.491 84.928,-22.001 0,-10e-4 9.735,-9.219 -3.164,-22.002 z"
   id="path997"
   style="fill:#ffd42a;fill-opacity:1;fill-rule:evenodd" />
								<path
   d="m 1446.342,856.448 c 0,0 -26.639,23.601 -88.449,23.928 l -0.73,20.979 c 0,0 66.826,-2.951 89.18,-19.666 -10e-4,-10e-4 9.118,-8.852 -10e-4,-25.241 z"
   id="path999"
   style="fill:#ffd42a;fill-opacity:1;fill-rule:evenodd" />
								<g
   id="g1001">
									<path
   d="m 1331.124,770.405 c 0,0 6.813,-8.85 25.796,-9.833 v 15.077 c 0,0 -21.253,0.492 -25.796,-5.244 z"
   id="path1003"
   style="fill:#ffd42a;fill-opacity:1;fill-rule:evenodd" />
									<path
   d="m 1312.144,778.272 c 0,0 1.945,-11.615 21.656,-2.612 0,0 11.113,4.415 23.12,3.595 l -0.813,11.473 c 0,0 -30.985,0.164 -43.963,-12.456 z"
   id="path1005"
   style="fill:#ffd42a;fill-opacity:1;fill-rule:evenodd" />
									<path
   d="m 1297.177,792.408 c 0,0 -2.189,-13.03 13.385,-12.169 0,0 9.004,12.538 45.142,13.644 v 14.504 c -10e-4,0 -43.074,0.738 -58.527,-15.979 z"
   id="path1007"
   style="fill:#ffd42a;fill-opacity:1;fill-rule:evenodd" />
									<path
   d="m 1294.866,795.972 c 0,0 15.816,15.734 60.837,16.225 v 17.456 c 0,0 -41.126,0.162 -65.624,-16.842 0,10e-4 -10.869,-5.858 4.787,-16.839 z"
   id="path1009"
   style="fill:#ffd42a;fill-opacity:1;fill-rule:evenodd" />
									<path
   d="M 1282.698,813.919"
   id="path1011"
   style="fill:#fcb040;fill-rule:evenodd" />
									<path
   d="m 1282.698,813.919 c 0,0 24.902,17.945 72.274,19.42 v 20.814 c 0,0 -66.19,-3.278 -79.493,-25.239 0,0 -5.029,-6.884 7.219,-14.995 z"
   id="path1013"
   style="fill:#ffd42a;fill-opacity:1;fill-rule:evenodd" />
									<path
   d="m 1273.208,832.603 c 0,0 20.928,24.337 81.765,23.846 v 20.157 c 0,0 -61.323,0.491 -84.927,-22.001 0,-10e-4 -9.734,-9.219 3.162,-22.002 z"
   id="path1015"
   style="fill:#ffd42a;fill-opacity:1;fill-rule:evenodd" />
									<path
   d="m 1266.522,856.448 c 0,0 26.639,23.601 88.45,23.928 l 0.73,20.979 c 0,0 -66.825,-2.951 -89.181,-19.666 10e-4,-10e-4 -9.118,-8.852 10e-4,-25.241 z"
   id="path1017"
   style="fill:#ffd42a;fill-opacity:1;fill-rule:evenodd" />
								</g>
								<path
   d="m 1357.162,793.883 c 0,0 -1.086,0.017 -2.189,-0.025 -1.103,-0.042 0,14.534 0,14.534 0,0 2.512,0.169 2.918,0"
   id="path1019"
   style="fill:#ffd42a;fill-opacity:1;fill-rule:evenodd" />
								<path
   d="m 1356.92,790.728 c 0,0 -1.602,-0.006 -1.867,-0.011 -0.264,-0.006 0.021,-7.978 3.873,-3.922"
   id="path1021"
   style="fill:#ffd42a;fill-opacity:1;fill-rule:evenodd" />
								<path
   d="m 1359.111,880.366 c 0,0 -5.963,0.062 -7.425,0 -1.461,-0.063 2.976,20.936 2.976,20.936 0,0 1.883,0.104 4.205,-0.037"
   id="path1023"
   style="fill:#ffd42a;fill-opacity:1;fill-rule:evenodd" />
								<path
   d="m 1359.111,856.454 c 0,0 -8.073,0.061 -9.597,0 -1.525,-0.061 3.265,20.137 3.265,20.137 0,0 6.412,0.023 7.953,-0.01"
   id="path1025"
   style="fill:#ffd42a;fill-opacity:1;fill-rule:evenodd" />
								<path
   d="m 1359.609,833.277 c 0,0 -5.119,0.098 -8.286,-0.087 -3.168,-0.184 -2.109,11.457 -2.109,11.457 l 4.483,9.432 c 0,0 2.145,0.254 5.912,-0.029"
   id="path1027"
   style="fill:#ffd42a;fill-opacity:1;fill-rule:evenodd" />
								<path
   d="m 1360.453,812.133 c 0,0 -6.107,0.107 -9.505,-0.048 -3.396,-0.154 1.104,15.723 1.104,15.723 l 2.92,1.846 c 0,0 2.133,0.031 3.957,-0.026"
   id="path1029"
   style="fill:#ffd42a;fill-opacity:1;fill-rule:evenodd" />
							</g>
						</g>
						<g
   id="g1031">
							
							
							
							
							
							
							
							
						</g>
						<path
   d="m 1358.025,760.715 c 0,0 -1.621,-0.257 -4.469,0.124 -2.849,0.38 4.813,-0.596 4.813,-0.596"
   id="path1049"
   style="fill:#933c06;fill-rule:evenodd" />
						
						<g
   id="g1053">
							
							<path
   d="M 1314.276,871.179"
   id="path1057"
   style="fill:none" />
							
							
							
							
							
						</g>
						<path
   d="m 1357.588,882.226 c 0,0 -0.705,-0.011 -0.924,0.004 -0.219,0.015 0.502,0.707 1.002,0.707"
   id="path1069"
   style="fill:#923d05;fill-rule:evenodd" />
						<g
   id="g1071"
   style="fill:#d1a155;fill-opacity:1">
							<g
   id="g1073"
   style="fill:#ab4500;fill-opacity:1">
								<path
   d="m 1365.658,903.188 c 0,0 2.873,-20.973 -8.496,-20.973 v 20.973 z"
   id="path1075"
   style="fill:#ab4500;fill-opacity:1;fill-rule:evenodd" />
								<path
   d="m 1348.667,903.188 c 0,0 -2.873,-20.973 8.495,-20.973 v 20.973 z"
   id="path1077"
   style="fill:#ab4500;fill-opacity:1;fill-rule:evenodd" />
								<rect
   width="1.6799999"
   height="19.066"
   x="1356.213"
   y="883.25299"
   id="rect1079"
   style="fill:#ab4500;fill-opacity:1;fill-rule:evenodd" />
							</g>
							
						</g>
						<path
   d="m 1381.641,851.653 c 0,0 -31.747,3.495 -56.444,-0.967 -24.699,-4.465 8.449,4.843 8.449,4.843 0,0 22.112,2.841 47.218,-0.169 25.105,-3.01 0.777,-3.707 0.777,-3.707 z"
   id="path1083"
   style="fill:#ab4501;fill-opacity:1;fill-rule:evenodd" />
					</g><g
   aria-label="★ ★ ★ ★ ★ ★ ★ ★ ★ ★ ★ ★ ★ ★ ★ ★ ★ ★ ★ ★ ★ ★ ★ ★ ★ ★ ★ ★ ★ ★ ★ ★ ★ ★ ★ ★ ★ ★ ★ ★ ★ ★ ★ ★ ★ "
   transform="matrix(1.0346728,0,0,1.0346728,-35.251886,-17.336402)"
   id="text4592"
   style="font-weight:bold;font-size:52.9636px;line-height:1.25;font-family:'Linux Biolinum Capitals';-inkscape-font-specification:'Linux Biolinum Capitals Bold';letter-spacing:0px;fill:#aa4400;fill-opacity:1;stroke-width:1.06971"><path
     d="m 1352.9119,510.76853 6.3925,-7.8956 -0.5033,10.30631 10.0214,4.21778 -10.3657,2.83391 -0.5285,10.82292 -5.7163,-9.13417 -10.527,2.9555 6.9495,-8.69696 -6.1018,-9.72261 z"
     style="font-size:52.9636px;fill:#aa4400;fill-opacity:1;stroke-width:1.06971"
     id="path4822" /><path
     d="m 1348.1897,557.47138 7.427,-6.93145 -1.9296,10.13659 9.3386,5.56849 -10.6588,1.36706 -2.0262,10.64468 -4.3925,-9.83944 -10.8354,1.46507 8.0898,-7.64768 -4.6926,-10.47573 z"
     style="font-size:52.9636px;fill:#aa4400;fill-opacity:1;stroke-width:1.06971"
     id="path4824" /><path
     d="m 1336.9938,603.07104 8.3252,-5.82197 -3.3314,9.76604 8.4659,6.82253 -10.7452,-0.1405 -3.4983,10.25556 -2.97,-10.358 -10.9338,-0.0682 9.0819,-6.43822 -3.1778,-11.03007 z"
     style="font-size:52.9636px;fill:#aa4400;fill-opacity:1;stroke-width:1.06971"
     id="path4826" /><path
     d="m 1319.5145,646.6488 9.0585,-4.59871 -4.6662,9.20327 7.427,7.94087 -10.6196,-1.6439 -4.9001,9.66459 -1.4901,-10.67185 -10.8165,-1.59873 9.894,-5.10293 -1.6018,-11.36641 z"
     style="font-size:52.9636px;fill:#aa4400;fill-opacity:1;stroke-width:1.06971"
     id="path4828" /><path
     d="m 1296.1195,687.34897 9.6107,-3.29225 -5.9025,8.46368 6.2486,8.89789 -10.2871,-3.10694 -6.1984,8.88792 0.011,-10.77537 -10.4884,-3.08964 10.5083,-3.67518 -0,-11.47873 z"
     style="font-size:52.9636px;fill:#aa4400;fill-opacity:1;stroke-width:1.06971"
     id="path4830" /><path
     d="m 1267.2993,724.3974 9.9742,-1.92859 -7.0185,7.56402 4.9552,9.67799 -9.7573,-4.50261 -7.3703,7.94316 1.504,-10.6699 -9.959,-4.51337 10.9162,-2.18342 1.5876,-11.3684 z"
     style="font-size:52.9636px;fill:#aa4400;fill-opacity:1;stroke-width:1.06971"
     id="path4832" /><path
     d="m 1233.6282,757.09752 10.1451,-0.52946 -7.9979,6.51976 3.568,10.2707 -9.0402,-5.80982 -8.3988,6.84656 2.9664,-10.35903 -9.2385,-5.84838 11.1134,-0.65145 3.1459,-11.03923 z"
     style="font-size:52.9636px;fill:#aa4400;fill-opacity:1;stroke-width:1.06971"
     id="path4834" /><path
     d="m 1195.7483,784.82062 10.1204,0.88441 -8.8258,5.34602 2.1072,10.66664 -8.1458,-7.00884 -9.2681,5.61398 4.376,-9.84677 -8.3368,-7.07456 11.0962,0.89806 4.6483,-10.49545 z"
     style="font-size:52.9636px;fill:#aa4400;fill-opacity:1;stroke-width:1.06971"
     id="path4836" /><path
     d="m 1154.3723,807.00681 9.8976,2.28915 -9.4858,4.06103 0.5968,10.85639 -7.0871,-8.07779 -9.9614,4.26459 5.7084,-9.13911 -7.2671,-8.16955 10.862,2.43894 6.0685,-9.74341 z"
     style="font-size:52.9636px;fill:#aa4400;fill-opacity:1;stroke-width:1.06971"
     id="path4838" /><path
     d="m 1110.2934,823.18659 9.4788,3.65449 -9.9616,2.6907 -0.9314,10.83281 -5.8844,-8.99181 -10.4609,2.82556 6.9335,-8.24831 -6.0497,-9.1079 10.4127,3.93803 7.3749,-8.79614 z"
     style="font-size:52.9636px;fill:#aa4400;fill-opacity:1;stroke-width:1.06971"
     id="path4840" /><path
     d="m 1064.386,833.02542 8.8749,4.94367 -10.2399,1.27173 -2.4367,10.59623 -4.5696,-9.72611 -10.7532,1.33547 8.0185,-7.19807 -4.7171,-9.86416 9.7599,5.35496 8.5322,-7.67882 z"
     style="font-size:52.9636px;fill:#aa4400;fill-opacity:1;stroke-width:1.06971"
     id="path4842" /><path
     d="m 1017.5754,836.37918 8.1092,6.11927 -10.3175,-0.1512 -3.8733,10.15948 -3.1861,-10.26293 -10.83462,-0.15878 8.93372,-6.02469 -3.313,-10.41998 8.929,6.64856 9.5087,-6.43009 z"
     style="font-size:52.9636px;fill:#aa4400;fill-opacity:1;stroke-width:1.06971"
     id="path4844" /><path
     d="m 970.74345,833.26679 7.18524,7.18169 -10.19749,-1.57627 -5.24076,9.52638 -1.73646,-10.60488 -10.70864,-1.65528 9.68093,-4.73162 -1.84055,-10.77798 7.92407,7.81926 10.3064,-5.05364 z"
     style="font-size:52.9636px;fill:#aa4400;fill-opacity:1;stroke-width:1.06971"
     id="path4846" /><path
     d="m 924.78314,823.66643 6.10894,8.11696 -9.87634,-2.9885 -6.52294,8.69878 -0.23456,-10.74354 -10.37141,-3.1383 10.24806,-3.32958 -0.31339,-10.92951 6.75123,8.85169 10.91246,-3.56085 z"
     style="font-size:52.9636px;fill:#aa4400;fill-opacity:1;stroke-width:1.06971"
     id="path4848" /><path
     d="m 880.6212,807.7169 4.91093,8.8931 -9.35997,-4.34332 -7.67781,7.69861 1.27363,-10.67036 -9.82914,-4.56103 10.61358,-1.86029 1.22164,-10.86554 5.44389,9.7106 11.30383,-1.99615 z"
     style="font-size:52.9636px;fill:#aa4400;fill-opacity:1;stroke-width:1.06971"
     id="path4850" /><path
     d="m 839.13199,785.74702 3.62247,9.49115 -8.66264,-5.60642 -8.67658,6.55242 2.74951,-10.3884 -9.09686,-5.88744 10.7693,-0.36169 2.72527,-10.58892 4.0362,10.375 11.47176,-0.39993 z"
     style="font-size:52.9636px;fill:#aa4400;fill-opacity:1;stroke-width:1.06971"
     id="path4852" /><path
     d="m 801.1103,758.22134 2.27084,9.9019 -7.80117,-6.7539 -9.50165,5.28546 4.16401,-9.90655 -8.1922,-7.09244 10.71536,1.13573 4.16781,-10.1085 2.55795,10.8346 11.41633,1.19529 z"
     style="font-size:52.9636px;fill:#aa4400;fill-opacity:1;stroke-width:1.06971"
     id="path4854" /><path
     d="m 767.27079,725.69581 0.87861,10.12089 -6.79138,-7.76856 -10.14171,3.91961 5.49497,-9.23494 -7.1318,-8.15796 10.45506,2.60777 5.52668,-9.43442 1.03388,11.08435 11.14104,2.76377 z"
     style="font-size:52.9636px;fill:#aa4400;fill-opacity:1;stroke-width:1.06971"
     id="path4856" /><path
     d="m 738.25844,688.7961 -0.53365,10.14493 -5.64825,-8.63543 -10.58732,2.47507 6.72273,-8.38353 -5.93136,-9.06828 9.99231,4.03267 6.78181,-8.57668 -0.51351,11.12061 10.65003,4.28231 z"
     style="font-size:52.9636px;fill:#aa4400;fill-opacity:1;stroke-width:1.06971"
     id="path4858" /><path
     d="m 714.6514,648.21631 -1.94319,9.97137 -4.3888,-9.33872 -10.82903,0.97444 7.82616,-7.36409 -4.60879,-9.80683 9.3323,5.38674 7.91159,-7.54712 -2.05931,10.94033 9.94878,5.72566 z"
     style="font-size:52.9636px;fill:#aa4400;fill-opacity:1;stroke-width:1.06971"
     id="path4860" /><path
     d="m 696.94479,604.72918 -3.32151,9.60062 -3.03665,-9.86165 -10.85872,-0.55287 8.781,-6.19457 -3.18887,-10.35597 8.48524,6.6415 8.89125,-6.36381 -3.57229,10.54374 9.04813,7.06348 z"
     style="font-size:52.9636px;fill:#aa4400;fill-opacity:1;stroke-width:1.06971"
     id="path4862" /><path
     d="m 685.5118,559.18973 -4.63325,9.04087 -1.62571,-10.18972 -10.67429,-2.06808 9.56196,-4.90384 -1.7072,-10.70048 7.47155,7.76433 9.69482,-5.05598 -5.01363,9.93958 7.9698,8.26097 z"
     style="font-size:52.9636px;fill:#aa4400;fill-opacity:1;stroke-width:1.06971"
     id="path4864" /><path
     d="m 680.5492,512.51725 -5.83947,8.31293 -0.20036,-10.31664 -10.28554,-3.52495 10.14845,-3.53381 -0.21041,-10.83378 6.32553,8.72333 10.30107,-3.6661 -6.34052,9.15037 6.75027,9.28413 z"
     style="font-size:52.9636px;fill:#aa4400;fill-opacity:1;stroke-width:1.06971"
     id="path4866" /><path
     d="m 682.05621,465.61136 -6.92857,7.42961 1.2222,-10.24595 -9.70214,-4.90774 10.53839,-2.10265 1.28347,-10.75953 5.06401,9.51128 10.70778,-2.21267 -7.54017,8.19008 5.40749,10.12523 z"
     style="font-size:52.9636px;fill:#aa4400;fill-opacity:1;stroke-width:1.06971"
     id="path4868" /><path
     d="m 690.05225,419.34747 -7.89887,6.38844 2.64208,-9.97461 -8.92108,-6.21545 10.72881,-0.60928 2.77452,-10.47459 3.68512,10.12564 10.91192,-0.69454 -8.61074,7.05597 3.93944,10.78157 z"
     style="font-size:52.9636px;fill:#aa4400;fill-opacity:1;stroke-width:1.06971"
     id="path4870" /><path
     d="m 704.45145,374.65539 -8.71671,5.2176 4.01478,-9.50552 -7.96129,-7.40509 10.70824,0.90131 4.21601,-9.98199 2.22873,10.54237 10.90149,0.84256 -9.51516,5.77871 2.38853,11.22747 z"
     style="font-size:52.9636px;fill:#aa4400;fill-opacity:1;stroke-width:1.06971"
     id="path4872" /><path
     d="m 724.9674,332.42605 -9.36007,3.94884 5.30321,-8.85151 -6.84884,-8.44458 10.47735,2.38827 5.56903,-9.2952 0.73425,10.75033 10.67691,2.3571 -10.22908,4.39291 0.79679,11.45105 z"
     style="font-size:52.9636px;fill:#aa4400;fill-opacity:1;stroke-width:1.06971"
     id="path4874" /><path
     d="m 751.16429,293.4748 -9.81779,2.61061 6.48114,-8.02921 -5.60965,-9.31392 10.04412,3.82026 6.80601,-8.43168 -0.76592,10.74813 10.24608,3.8171 -10.74005,2.92969 -0.80129,11.45073 z"
     style="font-size:52.9636px;fill:#aa4400;fill-opacity:1;stroke-width:1.06971"
     id="path4876" /><path
     d="m 782.50574,258.53558 -10.08464,1.22651 7.53015,-7.0548 -4.26643,-10.00075 9.41863,5.17378 7.9076,-7.40842 -2.24628,10.53864 9.61908,5.19861 -11.04218,1.41486 -2.37858,11.22958 z"
     style="font-size:52.9636px;fill:#aa4400;fill-opacity:1;stroke-width:1.06971"
     id="path4878" /><path
     d="m 818.38274,228.26959 -10.15731,-0.18274 8.43508,-5.9433 -2.83947,-10.49546 8.61084,6.429 8.8579,-6.24121 -3.68495,10.12571 8.80592,6.48137 -11.13171,-0.1289 -3.91171,10.79165 z"
     style="font-size:52.9636px;fill:#aa4400;fill-opacity:1;stroke-width:1.06971"
     id="path4880" /><path
     d="m 858.1189,203.27225 -10.0329,-1.59535 9.18049,-4.71083 -1.35033,-10.7886 7.63172,7.56541 9.64068,-4.94696 -5.05904,9.51394 7.81761,7.64443 -11.00531,-1.67771 -5.37632,10.14181 z"
     style="font-size:52.9636px;fill:#aa4400;fill-opacity:1;stroke-width:1.06971"
     id="path4882" /><path
     d="m 900.96166,184.06218 -9.71068,-2.98446 9.74967,-3.37895 0.1736,-10.87139 6.49722,8.55948 10.23838,-3.54831 -6.34135,8.71183 6.67021,8.66376 -10.66198,-3.20217 -6.74343,9.2891 z"
     style="font-size:52.9636px;fill:#aa4400;fill-opacity:1;stroke-width:1.06971"
     id="path4884" /><path
     d="m 946.07582,171.04736 -9.19641,-4.31629 10.12708,-1.97881 1.69592,-10.7397 5.23313,9.38579 10.6347,-2.07799 -7.50001,7.73683 5.38979,9.51328 -10.10779,-4.66522 -7.97905,8.25203 z"
     style="font-size:52.9636px;fill:#aa4400;fill-opacity:1;stroke-width:1.06971"
     id="path4886" /><path
     d="m 992.55457,164.47358 -8.5075,-5.55217 10.30378,-0.55257 3.17163,-10.39991 3.87832,10.02184 10.8203,-0.58027 -8.5022,6.61975 4.0157,10.16986 -9.36155,-6.02433 -9.04819,7.0634 z"
     style="font-size:52.9636px;fill:#aa4400;fill-opacity:1;stroke-width:1.06971"
     id="path4888" /><path
     d="m 1039.4816,164.37863 -7.6642,-6.66822 10.282,0.86811 4.5702,-9.86562 2.4649,10.4596 10.7974,0.91163 -9.331,5.38903 2.5807,10.6251 -8.4453,-7.25324 -9.9327,5.75348 z"
     style="font-size:52.9636px;fill:#aa4400;fill-opacity:1;stroke-width:1.06971"
     id="path4890" /><path
     d="m 1085.9914,170.76497 -6.66,-7.67133 10.0607,2.29271 5.9006,-9.13236 0.983,10.70105 10.565,2.40762 -9.991,4.03592 1.0745,10.88107 -7.3519,-8.35949 -10.6376,4.31294 z"
     style="font-size:52.9636px;fill:#aa4400;fill-opacity:1;stroke-width:1.06971"
     id="path4892" /><path
     d="m 1131.1587,183.5961 -5.5183,-8.52953 9.6397,3.681 7.1231,-8.21458 -0.5275,10.73315 10.1229,3.8655 -10.4583,2.59486 -0.462,10.92423 -6.1069,-9.30794 -11.1374,2.77845 z"
     style="font-size:52.9636px;fill:#aa4400;fill-opacity:1;stroke-width:1.06971"
     id="path4894" /><path
     d="m 1174.078,202.63104 -4.2709,-9.21755 9.03,4.99316 8.2021,-7.13747 -2.0236,10.55385 9.4827,5.24344 -10.7185,1.10649 -1.9855,10.75221 -4.7449,-10.07064 -11.4165,1.19329 z"
     style="font-size:52.9636px;fill:#aa4400;fill-opacity:1;stroke-width:1.06971"
     id="path4896" /><path
     d="m 1213.9135,227.4659 -2.9476,-9.72194 8.2479,6.20044 9.115,-5.92746 -3.4717,10.16987 8.6614,6.51124 -10.7682,-0.39486 -3.4615,10.3716 -3.2983,-10.63265 -11.4715,-0.406 z"
     style="font-size:52.9636px;fill:#aa4400;fill-opacity:1;stroke-width:1.06971"
     id="path4898" /><path
     d="m 1249.9119,257.5859 -1.5729,-10.03645 7.3098,7.28289 9.848,-4.6081 -4.8466,9.59112 7.6762,7.64794 -10.6097,-1.88225 -4.8645,9.79231 -1.794,-10.98695 -11.3048,-1.99069 z"
     style="font-size:52.9636px;fill:#aa4400;fill-opacity:1;stroke-width:1.06971"
     id="path4900" /><path
     d="m 1281.3948,292.39864 -0.1679,-10.15756 6.2309,8.22493 10.3912,-3.20002 -6.128,8.8276 6.5432,8.63721 -10.2468,-3.33328 -6.1736,9.02437 -0.2554,-11.12953 -10.9202,-3.53692 z"
     style="font-size:52.9636px;fill:#aa4400;fill-opacity:1;stroke-width:1.06971"
     id="path4902" /><path
     d="m 1307.7503,331.2447 1.2461,-10.08224 5.0267,9.01143 10.7352,-1.72405 -7.2959,7.88976 5.2787,9.46312 -9.6838,-4.7257 -7.3685,8.07828 1.2947,-11.05693 -10.3224,-5.021 z"
     style="font-size:52.9636px;fill:#aa4400;fill-opacity:1;stroke-width:1.06971"
     id="path4904" /><path
     d="m 1328.4387,373.39185 2.6439,-9.80888 3.717,9.62587 10.8708,-0.20571 -8.3276,6.79184 3.9033,10.10837 -8.9278,-6.0336 -8.4258,6.96836 2.8283,-10.76719 -9.5186,-6.4153 z"
     style="font-size:52.9636px;fill:#aa4400;fill-opacity:1;stroke-width:1.06971"
     id="path4906" /><path
     d="m 1343.0199,418.02513 3.9935,-9.34113 2.3302,10.05203 10.7922,1.32092 -9.1978,5.55679 2.447,10.55589 -7.9933,-7.22606 -9.3198,5.71779 4.3104,-10.26411 -8.5249,-7.68686 z"
     style="font-size:52.9636px;fill:#aa4400;fill-opacity:1;stroke-width:1.06971"
     id="path4908" /><path
     d="m 1351.2029,464.25271 5.2568,-8.69313 0.906,10.27874 10.5027,2.81269 -9.8828,4.22013 0.9515,10.79397 -6.9078,-8.26992 -10.026,4.36257 5.6994,-9.5629 -7.3699,-8.80033 z"
     style="font-size:52.9636px;fill:#aa4400;fill-opacity:1;stroke-width:1.06971"
     id="path4910" /></g></svg>
